<?xml version="1.0" encoding="utf-8"?>
<!-- Generator: Adobe Illustrator 26.0.3, SVG Export Plug-In . SVG Version: 6.00 Build 0)  -->
<svg version="1.1" id="Layer_1" xmlns="http://www.w3.org/2000/svg" xmlns:xlink="http://www.w3.org/1999/xlink" x="0px" y="0px"
	 viewBox="0 0 420.3 372.7" style="enable-background:new 0 0 420.3 372.7;" xml:space="preserve">
<style type="text/css">
	.st0{fill:#FFFFFF;}
</style>
<g>
	<polygon class="st0" points="20,86.3 41.6,86.3 41.6,268.1 106.5,268.1 106.5,286.4 20,286.4 	"/>
	<path class="st0" d="M161.6,86.3h29.9l44.1,200H214L202,227.1h-51l-11.9,59.3h-21.6L161.6,86.3z M176.3,101.3l-22.2,107.5H199
		l-22.2-107.5C176.8,101.3,176.3,101.3,176.3,101.3z"/>
	<path class="st0" d="M251.9,286.4l61.3-200h53.2c14.8,0,24.9,4.5,30.5,13.4c5.6,9,6.1,20.9,1.5,35.9c-7.2,23.6-21.9,38.4-44.1,44.3
		l-0.2,0.6c21.4,6.1,27.9,22.9,19.5,50.4c-11.3,36.9-38.4,55.4-81.2,55.4L251.9,286.4L251.9,286.4z M302.9,190.5l-23.8,77.6h21.6
		c26.6,0,43.7-12.4,51.3-37.1c8.3-27-0.9-40.4-27.5-40.4L302.9,190.5L302.9,190.5z M329.2,104.6l-20.7,67.6h12.2
		c15.9,0,28.2-2.8,36.9-8.3c8.7-5.5,15.1-15,19.2-28.3c3.4-11.3,3.2-19.2-0.8-24c-4-4.7-12.4-7.1-25.1-7.1L329.2,104.6L329.2,104.6z
		"/>
</g>
</svg>
